<svg width="1000" height="225" viewBox="0 0 1000 225" fill="none" xmlns="http://www.w3.org/2000/svg">
<path d="M10.5006 20.9152L91.8888 2.80688L173.277 20.9152C175.476 21.4047 177.444 22.6304 178.853 24.3901C180.263 26.1497 181.032 28.3381 181.032 30.5941V129.634C181.032 139.429 178.616 149.073 173.999 157.709C169.382 166.345 162.707 173.706 154.567 179.139L91.8888 220.979L29.2109 179.139C21.0718 173.707 14.3978 166.348 9.78101 157.713C5.16424 149.079 2.74746 139.438 2.74512 129.644V30.5941C2.7455 28.3381 3.51411 26.1497 4.92408 24.3901C6.33405 22.6304 8.30112 21.4047 10.5006 20.9152V20.9152ZM91.8888 126.768L120.999 142.09L115.443 109.642L138.986 86.6543L106.439 81.914L91.8888 52.3914L77.3286 81.914L44.7912 86.6543L68.335 109.642L62.7883 142.09L91.8888 126.768Z" fill="#0185FF"/>
<mask id="mask0" mask-type="alpha" maskUnits="userSpaceOnUse" x="13" y="19" width="159" height="159">
<circle cx="92.0993" cy="98.6076" r="79.0827" fill="#C4C4C4"/>
</mask>
<g mask="url(#mask0)">
<path d="M171.182 98.6076C171.182 142.284 135.775 177.69 92.0993 177.69C48.4231 177.69 13.0166 142.284 13.0166 98.6076C13.0166 54.9314 48.4231 19.5249 92.0993 19.5249C135.775 19.5249 171.182 54.9314 171.182 98.6076Z" fill="white"/>
<path fill-rule="evenodd" clip-rule="evenodd" d="M92.0993 173.409C133.411 173.409 166.901 139.919 166.901 98.6076C166.901 57.2959 133.411 23.8062 92.0993 23.8062C50.7876 23.8062 17.2979 57.2959 17.2979 98.6076C17.2979 139.919 50.7876 173.409 92.0993 173.409ZM92.0993 177.69C135.775 177.69 171.182 142.284 171.182 98.6076C171.182 54.9314 135.775 19.5249 92.0993 19.5249C48.4231 19.5249 13.0166 54.9314 13.0166 98.6076C13.0166 142.284 48.4231 177.69 92.0993 177.69Z" fill="url(#paint0_linear)"/>
<path d="M75.2646 72.0629C76.2144 69.5506 77.9029 66.5187 78.6285 65.3168C81.1018 65.3168 86.9786 65.154 90.6987 64.5026C95.3488 63.6885 95.052 61.5949 101.384 59.7339C107.716 57.8729 102.967 59.7339 106.727 60.897C108.376 60.7807 112.722 60.3852 116.917 59.7339C122.161 58.9197 126.119 61.8275 129.186 65.3168C132.253 68.8062 135.221 71.1324 137.2 67.5268C139.179 63.9211 138.09 58.8034 135.914 55.4303C133.737 52.0573 124.832 46.358 121.765 46.9396C118.698 47.5211 100.593 38.5651 93.2711 38.3325C85.9496 38.0998 65.8651 41.8218 64.2821 42.636C62.6991 43.4502 57.4553 50.08 57.4553 53.8019C57.4553 57.5239 49.7381 59.1523 48.7487 59.3849C47.7593 59.6175 44.7912 63.4558 44.5933 64.9679C44.3954 66.4799 42.0209 72.0629 40.537 74.0402C39.053 76.0175 40.2401 81.1352 41.2295 82.9962C42.2189 84.8572 42.0209 89.7423 42.0209 90.0913C42.0209 90.4402 41.922 94.6274 42.6145 95.0927C43.3071 95.5579 42.6145 97.6515 42.6145 99.3962C42.6145 101.141 43.7029 103.002 44.5933 103.235C45.4838 103.467 46.77 109.166 48.7487 114.052C50.3317 117.96 52.3105 120.72 53.102 121.612C53.3659 119.751 53.6363 116.075 52.6073 116.261C51.3211 116.494 49.0457 108.817 48.7487 107.073C48.4518 105.328 47.0669 104.398 45.7807 102.42C44.4945 100.443 45.4839 96.0232 45.4839 94.6274C45.4839 93.2317 47.3637 91.3707 49.0457 89.7423C50.7276 88.114 51.3212 91.0218 54.7841 91.0218C58.247 91.0218 58.9395 97.4189 60.7204 100.094C62.1451 102.234 65.0737 105.173 66.3599 106.375C66.6237 105.561 67.1514 103.63 67.1514 102.42C67.1514 100.908 70.2185 96.8373 72.9888 91.0218C75.205 86.3693 83.2125 86.0591 86.9391 86.4856C83.0476 84.043 74.9875 79.0416 73.8794 78.5764C72.4943 77.9948 74.0773 75.2033 75.2646 72.0629Z" fill="url(#paint1_linear)"/>
<path d="M110.447 95.3168C107.036 94.4716 100.232 94.9646 97.2564 95.3168L93.7852 96.0211C96.463 96.2559 102.295 96.7254 104.199 96.7254C106.579 96.7254 111.173 98.3153 111.173 99.4891C111.173 100.428 109.158 104.708 109.158 106.116H110.447C111.836 105.49 114.871 104.121 115.902 103.651C117.192 103.064 119.274 100.13 119.274 98.3688C119.274 96.608 114.712 96.3732 110.447 95.3168Z" fill="url(#paint2_linear)"/>
<path d="M100.458 98.6616C98.7921 98.7531 91.7001 99.5386 88.3623 99.9199L86.082 100.377C87.5692 100.873 91.0761 101.013 92.5037 101.013C93.9314 101.013 97.0448 101.127 98.0363 101.013C98.1023 101.471 98.5843 103.479 98.9254 103.787C99.8146 104.592 100.458 105.296 101.152 105.296C101.707 105.296 104.027 105.067 105.117 104.953C105.91 104.076 107.437 102.162 107.199 101.521C106.902 100.721 102.54 98.5472 100.458 98.6616Z" fill="url(#paint3_linear)"/>
<path d="M129.513 98.3234C131.705 96.7521 134.928 95.8971 136.265 95.666V96.8214C136.265 97.168 135.874 98.67 134.993 99.7098C134.289 100.542 133.069 101.597 132.547 102.021C132.775 102.406 133.232 103.315 133.232 103.869C133.232 104.562 132.057 105.833 130.883 105.718C129.709 105.602 125.697 103.06 125.795 101.558C125.893 100.056 126.773 100.288 129.513 98.3234Z" fill="url(#paint4_linear)"/>
<path d="M109.891 121.565C109.564 122.387 109.478 123.679 111.758 122.269C114.608 120.507 117.261 120.86 119.522 120.86C121.782 120.86 125.025 122.269 126.106 121.565C126.139 121.543 126.172 121.521 126.205 121.498L127.777 119.803C127.588 120.142 127.017 120.936 126.205 121.498L123.747 124.149C123.977 124.775 124.435 126.216 124.435 126.968C124.435 127.907 122.448 127.085 121.367 126.968C120.286 126.85 119.227 125.441 118.146 125.323C117.065 125.206 113.626 125.323 111.758 124.736C109.891 124.149 109.203 123.679 109.203 122.974C109.203 122.41 109.662 120.938 109.891 120.273V121.565Z" fill="url(#paint5_linear)"/>
<path d="M113.345 132.646C111.843 133.597 107.648 134.112 105.145 134.072L103.268 134.429C106.627 134.587 115.637 134.904 117.139 134.904C118.64 134.904 121.611 134.706 124.113 134.904V131.694C123.356 131.694 121.584 131.885 120.557 132.646C119.272 133.597 118.493 132.645 118.098 131.694C117.703 130.743 115.222 131.457 113.345 132.646Z" fill="url(#paint6_linear)"/>
<path d="M113.705 138.34C112.842 138.248 109.815 138.839 108.409 139.146C108.965 140.068 110.273 142.119 111.057 142.949C112.038 143.986 115.471 144.447 118.413 143.986C120.767 143.617 121.682 140.606 121.845 139.146C120.57 139.415 117.785 139.976 116.844 140.068C115.667 140.183 114.784 138.455 113.705 138.34Z" fill="url(#paint7_linear)"/>
<path d="M64.9623 123.128C67.6007 128.805 71.8545 137.886 79.3289 139.908C82.8718 140.867 87.1956 143.247 90.6255 144.019C93.033 146.452 96.1281 146.556 101.669 149.105C103.697 150.038 108.495 149.8 110.276 149.8H116.707C113.343 151.306 102.827 152.76 101.669 153.275C93.8525 156.751 94.9408 159.068 93.061 161.848L50.814 134.508L48.7363 132.886L51.5066 129.179L70.8816 144.23C68.1787 142.041 64.1644 138.228 63.2804 135.203C62.2514 131.681 61.5984 124.39 61.4005 121.185V116.783L64.9623 123.128Z" fill="url(#paint8_linear)"/>
<path d="M49.3487 130.376C46.5791 130.105 41.0401 129.726 41.0401 130.376C41.0401 131.026 74.7361 152.249 91.5842 162.778V170.095C93.6613 169.166 98.3102 167.865 100.288 170.095C100.927 170.815 102.353 173.628 104.142 177.473C108.77 182.471 113.95 197.355 116.312 205.517C113.253 198.151 107.897 185.54 104.142 177.473C103.151 176.403 102.185 175.786 101.278 175.786H91.5842L78.3299 169.166L75.0658 164.985L72.9887 166.611L61.9105 173.811C58.4156 169.282 50.7137 159.782 47.865 158.017C45.0163 156.251 36.589 149.926 32.7314 146.984C34.0832 144.158 36.7868 137.971 36.7868 135.834C36.7868 133.698 39.6223 130.299 41.0401 128.866L49.3487 130.376Z" fill="url(#paint9_linear)"/>
<path d="M100.896 164.342L103.268 156.769L117.692 149.778L125.99 156.769C123.224 160.225 117.534 167.861 116.901 170.75C116.269 173.64 117.165 198.209 117.692 210.132C115.584 202.054 111.349 185.035 111.27 181.586C111.191 178.137 104.321 168.653 100.896 164.342Z" fill="url(#paint10_linear)"/>
<path d="M99.6242 113.3L115.425 113.883L97.6491 114.583C97.4187 114.544 97.0961 113.93 97.6491 111.783C98.3404 109.1 101.007 100.818 101.797 100.234C102.429 99.7678 114.635 99.8844 120.659 100.001L118.191 109.334L119.869 100.818C114.174 101.284 102.646 102.288 102.093 102.568C101.54 102.847 100.217 109.839 99.6242 113.3Z" fill="url(#paint11_linear)"/>
<path d="M128.189 103.156L126.787 111.446C127.661 108.247 129.121 101.66 130.299 101.305C131.476 100.95 135.892 101.273 137.662 101.427L135.719 111.142L127.756 111.616C130.023 111.779 134.77 112.028 135.623 111.709C136.475 111.391 137.698 104.162 138.203 100.587L130.162 100.346C129.575 100.866 128.359 102.157 128.189 103.156Z" fill="url(#paint12_linear)"/>
<path d="M124.183 104.82C123.543 104.739 121.551 104.954 119.285 105.323L119.685 104.317L127.782 103.914V104.82C127.748 104.686 124.823 104.9 124.183 104.82Z" fill="url(#paint13_linear)"/>
</g>
<path d="M713.586 124.908C708.171 124.908 702.392 124.647 696.248 124.127C690.104 123.71 684.689 123.137 680.003 122.408V106.008C691.666 107.153 700.934 107.726 707.807 107.726C712.493 107.726 716.137 107.465 718.741 106.945C721.344 106.424 723.27 105.591 724.52 104.446C725.77 103.404 726.551 102.05 726.863 100.384C727.175 98.7182 727.332 96.3232 727.332 93.1992C727.332 89.3463 727.071 86.5868 726.551 84.9206C726.134 83.2545 725.249 82.057 723.895 81.3281C722.541 80.495 720.25 79.8181 717.022 79.2975L697.185 76.4859C689.688 75.5487 684.533 72.685 681.721 67.8949C678.91 63.0007 677.504 55.9717 677.504 46.808C677.504 38.0609 678.91 31.3964 681.721 26.8145C684.637 22.1285 688.594 19.0045 693.592 17.4426C698.695 15.7764 705.151 14.9434 712.961 14.9434C718.272 14.9434 723.635 15.2558 729.05 15.8806C734.465 16.4012 738.994 17.0781 742.639 17.9111V33.9997C735.142 32.7501 726.863 32.1253 717.803 32.1253C713.222 32.1253 709.577 32.3335 706.869 32.7501C704.266 33.1666 702.288 33.8435 700.934 34.7807C699.476 35.7179 698.539 37.0195 698.122 38.6857C697.706 40.2476 697.497 42.6427 697.497 45.8708C697.497 49.4113 697.706 51.9626 698.122 53.5246C698.539 55.0866 699.372 56.18 700.621 56.8048C701.871 57.4296 704.006 57.9502 707.026 58.3668L727.019 61.0221C731.393 61.6469 734.985 62.8445 737.797 64.6147C740.713 66.2809 743.004 69.0404 744.67 72.8933C746.44 77.2669 747.325 83.4107 747.325 91.3248C747.325 100.801 745.971 107.986 743.264 112.88C740.661 117.775 736.964 121.003 732.174 122.565C727.488 124.127 721.292 124.908 713.586 124.908Z" fill="white"/>
<path fill-rule="evenodd" clip-rule="evenodd" d="M255.075 16.193H296.937C305.059 16.193 311.255 17.5988 315.524 20.4103C319.898 23.1178 322.814 27.0228 324.271 32.1253C325.833 37.1237 326.614 43.684 326.614 51.8064C326.614 59.6164 325.886 66.0726 324.428 71.1751C322.97 76.1735 320.054 80.1826 315.681 83.2024C311.307 86.1182 304.955 87.576 296.624 87.576H274.913V123.658H255.075V16.193ZM290.064 70.3941C295.27 70.3941 298.967 69.9255 301.154 68.9883C303.445 67.947 304.903 66.2288 305.528 63.8337C306.256 61.3345 306.621 57.3254 306.621 51.8064C306.621 46.2874 306.256 42.3303 305.528 39.9352C304.903 37.4361 303.497 35.7179 301.31 34.7807C299.123 33.8435 295.479 33.3749 290.376 33.3749H274.913V70.3941H290.064Z" fill="white"/>
<path d="M343.242 123.658V16.193H406.034V33.3749H363.08V60.7097H400.099V78.0479H363.08V106.476H406.034V123.658H343.242Z" fill="white"/>
<path d="M444.074 55.7114L481.249 123.658H500.149V16.193H480.937V80.7033H480.312L444.542 16.193H424.237V123.658H443.449V55.7114H444.074Z" fill="white"/>
<path d="M540.438 123.658V33.9997H513.728V16.193H586.985V33.9997H560.275V123.658H540.438Z" fill="white"/>
<path d="M600.727 16.193V123.658H663.519V106.476H620.564V78.0479H657.584V60.7097H620.564V33.3749H663.519V16.193H600.727Z" fill="white"/>
<path d="M783.584 33.9997V123.658H803.421V33.9997H830.131V16.193H756.874V33.9997H783.584Z" fill="white"/>
<path d="M843.873 123.658V16.193H906.665V33.3749H863.711V60.7097H900.73V78.0479H863.711V106.476H906.665V123.658H843.873Z" fill="white"/>
<path fill-rule="evenodd" clip-rule="evenodd" d="M965.479 84.452L978.912 123.658H999.999L984.536 81.1719C989.846 78.7768 993.387 74.8718 995.157 69.4569C997.032 63.9379 997.969 57.5337 997.969 50.2444C997.969 42.4344 997.24 36.1344 995.782 31.3443C994.324 26.5542 991.408 22.8575 987.035 20.2541C982.765 17.5467 976.465 16.193 968.135 16.193H925.024V123.658H944.861V84.452H965.479ZM972.508 65.8643C970.217 66.8015 966.573 67.2701 961.574 67.2701H944.861V33.3749H961.731C966.833 33.3749 970.478 33.8435 972.664 34.7807C974.851 35.7179 976.257 37.2799 976.882 39.4666C977.611 41.6534 977.975 45.246 977.975 50.2444C977.975 55.1386 977.611 58.7312 976.882 61.0221C976.257 63.3131 974.799 64.9271 972.508 65.8643Z" fill="white"/>
<path d="M468.314 214.422C467.26 214.657 465.932 214.852 464.331 215.008C462.769 215.164 461.305 215.242 459.938 215.242C455.682 215.242 452.558 214.696 450.566 213.602C448.614 212.47 447.306 210.517 446.642 207.745C445.978 204.933 445.646 200.56 445.646 194.624C445.646 188.728 445.978 184.374 446.642 181.562C447.306 178.75 448.614 176.798 450.566 175.705C452.558 174.572 455.682 174.006 459.938 174.006C461.344 174.006 462.808 174.103 464.331 174.299C465.893 174.455 467.162 174.67 468.139 174.943V179.746C465.757 179.395 463.511 179.219 461.403 179.219C458.2 179.219 455.975 179.531 454.725 180.156C453.475 180.781 452.655 182.089 452.265 184.081C451.874 186.072 451.679 189.587 451.679 194.624C451.679 199.662 451.874 203.176 452.265 205.168C452.655 207.159 453.475 208.467 454.725 209.092C455.975 209.717 458.2 210.029 461.403 210.029C464.136 210.029 466.44 209.854 468.314 209.502V214.422Z" fill="white"/>
<path fill-rule="evenodd" clip-rule="evenodd" d="M388.022 214.774L384.976 204.582H370.684L367.696 214.774H361.604L373.905 174.474H381.93L394.231 214.774H388.022ZM377.947 180.625H377.654L372.148 199.427H383.453L377.947 180.625Z" fill="white"/>
<path fill-rule="evenodd" clip-rule="evenodd" d="M542.075 204.582L545.121 214.774H551.33L539.029 174.474H531.004L518.704 214.774H524.796L527.783 204.582H542.075ZM534.753 180.625H535.046L540.552 199.427H529.247L534.753 180.625Z" fill="white"/>
<path fill-rule="evenodd" clip-rule="evenodd" d="M603.858 174.474H615.514C620.357 174.474 623.793 175.002 625.824 176.056C627.893 177.11 629.201 178.946 629.748 181.562C630.295 184.139 630.568 188.493 630.568 194.624C630.568 200.755 630.295 205.129 629.748 207.745C629.201 210.322 627.893 212.138 625.824 213.192C623.793 214.247 620.357 214.774 615.514 214.774H603.858V174.474ZM615.104 209.561C618.385 209.561 620.591 209.326 621.723 208.858C622.895 208.389 623.656 207.218 624.008 205.343C624.359 203.43 624.535 199.857 624.535 194.624C624.535 189.431 624.34 185.897 623.949 184.022C623.598 182.109 622.836 180.918 621.665 180.449C620.532 179.941 618.346 179.688 615.104 179.688H609.891V209.561H615.104Z" fill="white"/>
<path d="M708.749 174.474H685.554V214.774H708.749V209.561H691.587V197.026H706.406V191.813H691.587V179.688H708.749V174.474Z" fill="white"/>
<path d="M794.12 214.774V184.022H793.886L783.752 214.774H779.008L768.933 184.022H768.698V214.774H762.958V174.474H771.51L781.351 204.64H781.702L791.543 174.474H799.977V214.774H794.12Z" fill="white"/>
<path d="M863.945 199.837V214.774H869.978V199.837L882.22 174.474H876.128L867.342 193.394H866.932L858.087 174.474H851.702L863.945 199.837Z" fill="white"/>
<defs>
<linearGradient id="paint0_linear" x1="20.0202" y1="117.338" x2="163.933" y2="116.969" gradientUnits="userSpaceOnUse">
<stop stop-color="#0D234E"/>
<stop offset="1" stop-color="#0C224A"/>
</linearGradient>
<linearGradient id="paint1_linear" x1="44.1941" y1="89.8302" x2="133.727" y2="89.5594" gradientUnits="userSpaceOnUse">
<stop stop-color="#0D234E"/>
<stop offset="1" stop-color="#0C224A"/>
</linearGradient>
<linearGradient id="paint2_linear" x1="94.9138" y1="101.817" x2="118.106" y2="101.683" gradientUnits="userSpaceOnUse">
<stop stop-color="#0D234E"/>
<stop offset="1" stop-color="#0C224A"/>
</linearGradient>
<linearGradient id="paint3_linear" x1="87.0182" y1="102.763" x2="106.254" y2="102.606" gradientUnits="userSpaceOnUse">
<stop stop-color="#0D234E"/>
<stop offset="1" stop-color="#0C224A"/>
</linearGradient>
<linearGradient id="paint4_linear" x1="126.257" y1="101.887" x2="135.785" y2="101.861" gradientUnits="userSpaceOnUse">
<stop stop-color="#0D234E"/>
<stop offset="1" stop-color="#0C224A"/>
</linearGradient>
<linearGradient id="paint5_linear" x1="110.026" y1="124.509" x2="126.925" y2="124.403" gradientUnits="userSpaceOnUse">
<stop stop-color="#0D234E"/>
<stop offset="1" stop-color="#0C224A"/>
</linearGradient>
<linearGradient id="paint6_linear" x1="104.191" y1="133.511" x2="123.154" y2="133.234" gradientUnits="userSpaceOnUse">
<stop stop-color="#0D234E"/>
<stop offset="1" stop-color="#0C224A"/>
</linearGradient>
<linearGradient id="paint7_linear" x1="109.004" y1="141.938" x2="121.229" y2="141.866" gradientUnits="userSpaceOnUse">
<stop stop-color="#0D234E"/>
<stop offset="1" stop-color="#0C224A"/>
</linearGradient>
<linearGradient id="paint8_linear" x1="51.7461" y1="144.652" x2="113.592" y2="144.413" gradientUnits="userSpaceOnUse">
<stop stop-color="#0D234E"/>
<stop offset="1" stop-color="#0C224A"/>
</linearGradient>
<linearGradient id="paint9_linear" x1="36.4324" y1="176.269" x2="112.482" y2="176.056" gradientUnits="userSpaceOnUse">
<stop stop-color="#0D234E"/>
<stop offset="1" stop-color="#0C224A"/>
</linearGradient>
<linearGradient id="paint10_linear" x1="102.008" y1="187.102" x2="124.841" y2="187.078" gradientUnits="userSpaceOnUse">
<stop stop-color="#0D234E"/>
<stop offset="1" stop-color="#0C224A"/>
</linearGradient>
<linearGradient id="paint11_linear" x1="98.3762" y1="108.979" x2="119.591" y2="108.893" gradientUnits="userSpaceOnUse">
<stop stop-color="#0D234E"/>
<stop offset="1" stop-color="#0C224A"/>
</linearGradient>
<linearGradient id="paint12_linear" x1="128.007" y1="106.752" x2="136.523" y2="108.176" gradientUnits="userSpaceOnUse">
<stop stop-color="#0D234E"/>
<stop offset="1" stop-color="#0C224A"/>
</linearGradient>
<linearGradient id="paint13_linear" x1="119.661" y1="104.785" x2="127.39" y2="104.666" gradientUnits="userSpaceOnUse">
<stop stop-color="#0D234E"/>
<stop offset="1" stop-color="#0C224A"/>
</linearGradient>
</defs>
</svg>